<svg xmlns="http://www.w3.org/2000/svg" xmlns:xlink="http://www.w3.org/1999/xlink" data-name="Layer 1" viewBox="0 0 512 512" id="LocationPin"><defs><linearGradient id="a" x1="255.997" x2="255.997" y1="470.857" y2="5.684" gradientTransform="matrix(1 0 0 -1 0 514)" gradientUnits="userSpaceOnUse"><stop offset="0" stop-color="#fd1d1d" class="stopColor00efd1 svgShape"></stop><stop offset="1" stop-color="#2f0fef" class="stopColor00acea svgShape"></stop></linearGradient><linearGradient id="b" x1="256" x2="256" y1="470.857" y2="5.684" xlink:href="#a"></linearGradient></defs><path fill="url(#a)" d="M400.479,112.678C367.246,64.583,314.585,37,256,37S144.754,64.583,111.521,112.678C78.449,160.541,70.806,221.12,91.051,274.664c5.353,14.449,13.892,28.521,25.335,41.771l132,155.048a10,10,0,0,0,15.228,0L395.59,316.463c11.946-13.838,20.245-27.52,25.368-41.822C441.186,221.055,433.533,160.515,400.479,112.678Zm1.739,154.976c-.021.058-.043.115-.063.173-4.337,12.142-11.239,23.451-21.723,35.589l-.046.054L256,449.574,131.568,303.416c-9.922-11.488-17.244-23.5-21.786-35.762-17.946-47.463-11.145-101.147,18.193-143.606C157.418,81.438,204.081,57,256,57s98.582,24.438,128.024,67.048C413.362,166.506,420.164,220.191,402.218,267.654Z"></path><path fill="url(#b)" d="M256,111A102.048,102.048,0,1,0,358.048,213.048,102.163,102.163,0,0,0,256,111Zm0,184.1a82.048,82.048,0,1,1,82.048-82.047A82.141,82.141,0,0,1,256,295.1Z"></path></svg>