<svg xmlns="http://www.w3.org/2000/svg" data-name="Layer 1" viewBox="0 0 512 512" id="Mail"><defs><linearGradient id="a" x1="256" x2="256" y1="18" y2="491.527" gradientUnits="userSpaceOnUse"><stop offset="0" stop-color="#fd1d1d" class="stopColor00efd1 svgShape"></stop><stop offset="1" stop-color="#2f0fef" class="stopColor00acea svgShape"></stop></linearGradient></defs><path fill="url(#a)" d="M493,107a8,8,0,0,0-8-8H27a8,8,0,0,0-8,8V405a8,8,0,0,0,8,8H485a8,8,0,0,0,8-8ZM256,310.448,46.822,115H465.148Zm-82.431-54.914L35,385.992V126.06Zm11.721,11.047L250.538,327.5a8.019,8.019,0,0,0,10.924-.038l67.754-63.22L465.552,397H46.871Zm155.635-13.388L477,126.033V385.606Z"></path></svg>