<svg xmlns="http://www.w3.org/2000/svg" fill-rule="evenodd" stroke-linejoin="round" stroke-miterlimit="2" clip-rule="evenodd" viewBox="0 0 32 32" id="SongLyric"><path fill="url(#_Linear1)" d="M18.003,23.922l-0.001,0c-1.105,0 -2.002,0.897 -2.002,2.002c-0,1.105 0.897,2.002 2.002,2.002c1.104,-0 2.001,-0.897 2.001,-2.002l0,-7.122c0,-0 6.001,-0.75 6.001,-0.75l0.003,3.867c-1.105,-0 -2.002,0.897 -2.002,2.002c0,1.104 0.897,2.001 2.002,2.001c1.105,0 2.002,-0.897 2.002,-2.001l-0.006,-7.003c0,-0.286 -0.123,-0.559 -0.338,-0.749c-0.215,-0.19 -0.501,-0.278 -0.786,-0.242l-8,1c-0.5,0.062 -0.876,0.488 -0.876,0.992l0,6.003Z"></path><path fill="url(#_Linear2)" d="M18.003,23.922l-0.001,0c-1.105,0 -2.002,0.897 -2.002,2.002c-0,1.105 0.897,2.002 2.002,2.002c1.104,-0 2.001,-0.897 2.001,-2.002l0,-7.122c0,-0 6.001,-0.75 6.001,-0.75l0.003,3.867c-1.105,-0 -2.002,0.897 -2.002,2.002c0,1.104 0.897,2.001 2.002,2.001c1.105,0 2.002,-0.897 2.002,-2.001l-0.006,-7.003c0,-0.286 -0.123,-0.559 -0.338,-0.749c-0.215,-0.19 -0.501,-0.278 -0.786,-0.242l-8,1c-0.5,0.062 -0.876,0.488 -0.876,0.992l0,6.003Z"></path><path fill="url(#_Linear3)" d="M28,12.996l0.009,-6.037c-0,-0.795 -0.316,-1.558 -0.879,-2.121c-0.563,-0.562 -1.326,-0.879 -2.121,-0.879c-4.185,0 -13.824,0 -18.009,0c-0.796,0 -1.559,0.317 -2.121,0.879c-0.563,0.563 -0.879,1.326 -0.879,2.121c0,4.184 0,13.817 0,18c-0,0.796 0.316,1.559 0.879,2.122c0.562,0.562 1.325,0.878 2.121,0.878c-0.006,0 5.994,0.039 5.994,0.039c0.551,0.004 1.002,-0.441 1.006,-0.993c0.004,-0.552 -0.442,-1.003 -0.994,-1.007l-6.006,-0.039c-0.265,0 -0.52,-0.105 -0.707,-0.292c-0.188,-0.188 -0.293,-0.442 -0.293,-0.708l0,-18c-0,-0.265 0.105,-0.519 0.293,-0.707c0.187,-0.187 0.442,-0.293 0.707,-0.293l18.009,0c0.265,0 0.519,0.106 0.707,0.293c0.187,0.188 0.293,0.442 0.293,0.707c-0,0 -0.009,6.034 -0.009,6.034c-0.001,0.552 0.447,1.001 0.999,1.001c0.551,0.001 1,-0.446 1.001,-0.998Z"></path><path fill="url(#_Linear4)" d="M9.004,10l13.983,0c0.552,0 1,-0.448 1,-1c0,-0.552 -0.448,-1 -1,-1l-13.983,0c-0.552,0 -1,0.448 -1,1c0,0.552 0.448,1 1,1Z"></path><path fill="url(#_Linear5)" d="M9.004,13.994l13.983,0c0.552,0 1,-0.448 1,-1c0,-0.552 -0.448,-1 -1,-1l-13.983,0c-0.552,0 -1,0.448 -1,1c0,0.552 0.448,1 1,1Z"></path><path fill="url(#_Linear6)" d="M9.004,18l5.981,0c0.552,-0 1,-0.448 1,-1c-0,-0.552 -0.448,-1 -1,-1l-5.981,0c-0.552,-0 -1,0.448 -1,1c0,0.552 0.448,1 1,1Z"></path><path fill="url(#_Linear7)" d="M9.004,22.006l5.981,-0c0.552,-0 1,-0.448 1,-1c-0,-0.552 -0.448,-1 -1,-1l-5.981,-0c-0.552,-0 -1,0.448 -1,1c0,0.552 0.448,1 1,1Z"></path><defs><linearGradient id="_Linear1" x1="0" x2="1" y1="0" y2="0" gradientTransform="matrix(32 0 0 32 0 16)" gradientUnits="userSpaceOnUse"><stop offset="0" stop-color="#2f0fef" class="stopColor979fef svgShape"></stop><stop offset="1" stop-color="#fd1d1d" class="stopColorff8fb8 svgShape"></stop></linearGradient><linearGradient id="_Linear2" x1="0" x2="1" y1="0" y2="0" gradientTransform="matrix(32 0 0 32 0 16)" gradientUnits="userSpaceOnUse"><stop offset="0" stop-color="#2f0fef" class="stopColor979fef svgShape"></stop><stop offset="1" stop-color="#fd1d1d" class="stopColorff8fb8 svgShape"></stop></linearGradient><linearGradient id="_Linear3" x1="0" x2="1" y1="0" y2="0" gradientTransform="matrix(32 0 0 32 0 16)" gradientUnits="userSpaceOnUse"><stop offset="0" stop-color="#2f0fef" class="stopColor979fef svgShape"></stop><stop offset="1" stop-color="#fd1d1d" class="stopColorff8fb8 svgShape"></stop></linearGradient><linearGradient id="_Linear4" x1="0" x2="1" y1="0" y2="0" gradientTransform="matrix(32 0 0 32 0 16)" gradientUnits="userSpaceOnUse"><stop offset="0" stop-color="#2f0fef" class="stopColor979fef svgShape"></stop><stop offset="1" stop-color="#fd1d1d" class="stopColorff8fb8 svgShape"></stop></linearGradient><linearGradient id="_Linear5" x1="0" x2="1" y1="0" y2="0" gradientTransform="matrix(32 0 0 32 0 16)" gradientUnits="userSpaceOnUse"><stop offset="0" stop-color="#2f0fef" class="stopColor979fef svgShape"></stop><stop offset="1" stop-color="#fd1d1d" class="stopColorff8fb8 svgShape"></stop></linearGradient><linearGradient id="_Linear6" x1="0" x2="1" y1="0" y2="0" gradientTransform="matrix(32 0 0 32 0 16)" gradientUnits="userSpaceOnUse"><stop offset="0" stop-color="#2f0fef" class="stopColor979fef svgShape"></stop><stop offset="1" stop-color="#fd1d1d" class="stopColorff8fb8 svgShape"></stop></linearGradient><linearGradient id="_Linear7" x1="0" x2="1" y1="0" y2="0" gradientTransform="matrix(32 0 0 32 0 16)" gradientUnits="userSpaceOnUse"><stop offset="0" stop-color="#2f0fef" class="stopColor979fef svgShape"></stop><stop offset="1" stop-color="#fd1d1d" class="stopColorff8fb8 svgShape"></stop></linearGradient></defs></svg>