<svg xmlns="http://www.w3.org/2000/svg" enable-background="new 0 0 512 512" viewBox="0 0 512 512" id="Equalizer"><linearGradient id="a" x1="15.203" x2="496.797" y1="496.797" y2="15.203" gradientUnits="userSpaceOnUse"><stop offset="0" stop-color="#fd1d1d" class="stopColorffae46 svgShape"></stop><stop offset="1" stop-color="#2f0fef" class="stopColorfff050 svgShape"></stop></linearGradient><path fill="url(#a)" d="M511.919,47.884c0-23.413-19.05-42.461-42.461-42.461H42.593c-23.411,0-42.461,19.048-42.461,42.461c-0.01,78.43-0.042,338.124-0.051,416.232c0,23.413,19.05,42.461,42.461,42.461h426.864c23.411,0,42.461-19.048,42.461-42.461C511.877,386.588,511.909,127.641,511.919,47.884z M21.024,47.884c0-11.894,9.675-21.57,21.569-21.57h426.864c11.894,0,21.57,9.675,21.57,21.57v290.601H21.024V47.884z M490.976,464.116c0,11.894-9.675,21.57-21.57,21.57H42.543c-11.894,0-21.57-9.675-21.57-21.57V359.402h470.003V464.116z M69.513,432.989h258.405c4.572,16.213,19.464,28.146,37.119,28.146c17.655,0,32.543-11.933,37.114-28.146h40.285c5.769,0,10.446-4.678,10.446-10.446c0-5.769-4.677-10.446-10.446-10.446h-40.285c-4.571-16.213-19.459-28.144-37.114-28.144c-17.655,0-32.547,11.932-37.119,28.144H69.513c-5.769,0-10.446,4.677-10.446,10.446C59.068,428.311,63.745,432.989,69.513,432.989z M365.036,404.844c9.757,0,17.699,7.939,17.699,17.699c0,9.759-7.941,17.701-17.699,17.701c-9.762,0-17.703-7.941-17.703-17.701C347.333,412.783,355.274,404.844,365.036,404.844z M111.102,100.293h-7.803V69.226c0-5.769-4.677-10.446-10.446-10.446c-5.769,0-10.446,4.677-10.446,10.446v31.067h-7.804c-11.644,0-21.115,9.474-21.115,21.118v36.603c0,11.644,9.472,21.116,21.115,21.116h7.804v116.442c0,5.769,4.677,10.446,10.446,10.446c5.769,0,10.446-4.677,10.446-10.446V179.13h7.803c11.644,0,21.116-9.472,21.116-21.116v-36.603C132.218,109.767,122.746,100.293,111.102,100.293z M111.102,158.239l-36.723-0.225l0.224-36.83h36.499c0.127,0,0.225,0.099,0.225,0.227L111.102,158.239z M219.884,185.666h-7.804V69.226c0-5.769-4.677-10.446-10.446-10.446s-10.446,4.677-10.446,10.446v116.44h-7.803c-11.644,0-21.116,9.472-21.116,21.116v36.606c0,11.644,9.472,21.116,21.116,21.116h7.803v31.069c0,5.769,4.677,10.446,10.446,10.446s10.446-4.677,10.446-10.446v-31.069h7.804c11.644,0,21.115-9.472,21.115-21.116v-36.606C241,195.138,231.528,185.666,219.884,185.666z M219.884,243.613l-36.723-0.225l0.225-36.83h36.499c0.122,0,0.224,0.1,0.224,0.225L219.884,243.613z M328.66,142.979h-7.803V69.226c0-5.769-4.677-10.446-10.446-10.446s-10.446,4.677-10.446,10.446v73.752h-7.804c-11.644,0-21.115,9.474-21.115,21.118V200.7c0,11.644,9.471,21.118,21.115,21.118h7.804v73.755c0,5.769,4.677,10.446,10.446,10.446s10.446-4.677,10.446-10.446v-73.755h7.803c11.644,0,21.116-9.474,21.116-21.118v-36.603C349.776,152.453,340.305,142.979,328.66,142.979z M328.66,200.927l-36.723-0.227l0.224-36.83h36.499c0.127,0,0.225,0.1,0.225,0.227L328.66,200.927z M437.442,207.009h-7.803V69.226c0-5.769-4.677-10.446-10.446-10.446c-5.769,0-10.446,4.677-10.446,10.446v137.783h-7.804c-11.644,0-21.115,9.474-21.115,21.118v36.603c0,11.644,9.472,21.116,21.115,21.116h7.804v9.726c0,5.769,4.677,10.446,10.446,10.446c5.769,0,10.446-4.677,10.446-10.446v-9.726h7.803c11.644,0,21.116-9.472,21.116-21.116v-36.603C458.558,216.483,449.086,207.009,437.442,207.009z M437.442,264.955l-36.723-0.225l0.224-36.83h36.499c0.123,0,0.225,0.104,0.225,0.227L437.442,264.955z"></path></svg>