<svg xmlns="http://www.w3.org/2000/svg" viewBox="0 0 32 32" id="headphone"><defs><linearGradient id="a" x1="1" x2="31" y1="16" y2="16" gradientUnits="userSpaceOnUse"><stop offset="0" stop-color="#fd1d1d" class="stopColor8a5082 svgShape"></stop><stop offset="1" stop-color="#2f0fef" class="stopColor6f5f90 svgShape"></stop></linearGradient></defs><path fill="url(#a)" d="M29 18a12.43 12.43 0 0 0 .18-2 13 13 0 0 0-3.12-8.47 3.52 3.52 0 0 0 .2-1.48 3.21 3.21 0 0 0-1.39-2.34 15.84 15.84 0 0 0-17.75 0 3.2 3.2 0 0 0-1.39 2.37 3.31 3.31 0 0 0 .2 1.47A13 13 0 0 0 2.83 16 12.43 12.43 0 0 0 3 18a5 5 0 0 0-2 4v2a5 5 0 0 0 4 4.9A2.14 2.14 0 0 0 7.15 31h5.7A2.15 2.15 0 0 0 15 28.85v-11.7A2.15 2.15 0 0 0 12.85 15h-5.7A2.14 2.14 0 0 0 5 17.1h-.12a10.55 10.55 0 0 1-.05-1.1 11 11 0 0 1 2.34-6.82 3.26 3.26 0 0 0 2.16.82 3.22 3.22 0 0 0 1.8-.55 9 9 0 0 1 9.72 0 3.28 3.28 0 0 0 4-.29A11 11 0 0 1 27.17 16a10.55 10.55 0 0 1-.06 1.13h-.12A2.14 2.14 0 0 0 24.85 15h-5.7A2.15 2.15 0 0 0 17 17.15v11.7A2.15 2.15 0 0 0 19.15 31h5.7A2.14 2.14 0 0 0 27 28.9a5 5 0 0 0 4-4.9v-2a5 5 0 0 0-2-4ZM3 24v-2a3 3 0 0 1 2-2.83v7.66A3 3 0 0 1 3 24Zm9.85-7a.15.15 0 0 1 .15.15v11.7a.15.15 0 0 1-.15.15H11V17ZM7 17.15a.15.15 0 0 1 .15-.15H9v12H7.15a.15.15 0 0 1-.15-.15v-11.7Zm15-9.37a10.83 10.83 0 0 0-12 .02 1.24 1.24 0 0 1-1.58-.16L8.1 7.3a1.29 1.29 0 0 1-.38-1 1.2 1.2 0 0 1 .52-.88 13.86 13.86 0 0 1 15.5 0 1.18 1.18 0 0 1 .51.88 1.25 1.25 0 0 1-.37 1l-.34.35a1.27 1.27 0 0 1-1.54.13ZM19.15 29a.15.15 0 0 1-.15-.15v-11.7a.15.15 0 0 1 .15-.15H21v12Zm5.85-.15a.15.15 0 0 1-.15.15H23V17h1.85a.15.15 0 0 1 .15.15v11.7ZM29 24a3 3 0 0 1-2 2.83v-7.66A3 3 0 0 1 29 22Z"></path></svg>