<svg xmlns="http://www.w3.org/2000/svg" enable-background="new 0 0 512 512" viewBox="0 0 512 512" id="Microphone"><linearGradient id="a" x1="65.043" x2="499.011" y1="248.088" y2="248.088" gradientUnits="userSpaceOnUse"><stop offset="0" stop-color="#fd1d1d" class="stopColorff58ff svgShape"></stop><stop offset="1" stop-color="#2f0fef" class="stopColor0075ce svgShape"></stop></linearGradient><path fill="url(#a)" d="M431.523,477.281c0,2.203-1.782,3.985-3.985,3.985H136.516c-2.203,0-3.985-1.782-3.985-3.985
		s1.782-3.985,3.985-3.985h291.021C429.741,473.296,431.523,475.078,431.523,477.281z M495.026,473.296h-42.522
		c-2.203,0-3.985,1.782-3.985,3.985s1.782,3.985,3.985,3.985h42.522c2.203,0,3.985-1.782,3.985-3.985
		S497.228,473.296,495.026,473.296z M111.551,473.296H69.029c-2.203,0-3.985,1.782-3.985,3.985s1.782,3.985,3.985,3.985h42.522
		c2.203,0,3.985-1.782,3.985-3.985S113.753,473.296,111.551,473.296z M119.751,375.751c-5.943-5.908-9.216-13.769-9.216-22.129
		c0.004-8.36,3.277-16.217,9.216-22.121l33.057-32.873l-6.733-6.695c-2.409-2.397-3.736-5.589-3.736-8.99
		c0-3.398,1.327-6.589,3.736-8.986l7.464-7.423l-2.958-2.941c-3.779-3.759-4.16-9.765-0.887-13.972l11.446-14.717
		c0.004-0.004,0.004-0.009,0.008-0.013l98.155-126.212c0.01-0.012,0.023-0.017,0.033-0.028L275.6,87.742
		c0.004-0.155-0.062-0.3-0.041-0.455c2.615-18.179,10.913-34.668,24.001-47.682c33.115-32.925,86.986-32.925,120.086,0
		c16.05,15.96,24.888,37.175,24.888,59.739s-8.838,43.779-24.888,59.739c-13.104,13.034-29.671,21.292-47.904,23.884
		c-0.187,0.027-0.374,0.039-0.56,0.039c-0.488,0-0.963-0.108-1.413-0.279l-20.335,15.64c-0.01,0.008-0.021,0.009-0.031,0.017
		L266.806,261.9c-1.58,1.215-3.816,1.07-5.225-0.34c-1.693-1.694-1.512-4.49,0.387-5.951l78.992-60.769l-58.677-58.376
		l-19.438-19.331l-93.244,119.863l50.813,50.534l15.283-11.741c1.58-1.214,3.814-1.068,5.223,0.341l0.039,0.039
		c1.695,1.695,1.512,4.494-0.389,5.953l-18.052,13.863c-0.002,0.001-0.004,0.002-0.006,0.003l-14.863,11.431
		c-1.899,1.459-4.168,2.179-6.429,2.179c-2.713,0-5.417-1.035-7.457-3.063l-3.032-3.015l-7.566,7.521
		c-2.464,2.452-5.701,3.682-8.939,3.682c-3.238,0-6.476-1.23-8.939-3.682l-6.83-6.794l-33.088,32.904
		c-4.425,4.402-6.861,10.251-6.865,16.47c0,6.223,2.44,12.076,6.865,16.478c9.154,9.103,24.044,9.095,33.197,0l11.551-11.492
		c9.48-9.426,24.915-9.426,34.396,0l44.234,43.989c1.561,1.553,1.568,4.075,0.016,5.635c-0.778,0.782-1.802,1.175-2.825,1.175
		c-1.016,0-2.032-0.385-2.81-1.16l-44.234-43.989c-6.383-6.344-16.774-6.344-23.156,0l-11.551,11.492
		C151.936,387.937,132.002,387.933,119.751,375.751z M283.759,86.462l88.803,88.313c15.754-2.643,30.053-9.994,41.463-21.343
		c14.532-14.454,22.537-33.664,22.537-54.088s-8.005-39.634-22.537-54.088c-30.01-29.838-78.836-29.838-108.846,0
		C293.804,56.573,286.421,70.782,283.759,86.462z M267.772,110.789l48.908,48.64l30.664,30.49l16.433-12.641l-48.114-47.848
		l-35.18-34.982L267.772,110.789z M156.201,257.942l43.183,42.942c0.922,0.918,2.382,1,3.409,0.214l11.259-8.659l-49.375-49.099
		l-8.694,11.177C155.182,255.549,155.275,257.02,156.201,257.942z M151.695,286.283l19.214,19.109c1.829,1.821,4.81,1.821,6.639,0
		l7.535-7.491l-25.892-25.747l-7.496,7.454c-0.895,0.891-1.385,2.074-1.385,3.335C150.309,284.208,150.799,285.391,151.695,286.283z
		 M270.356,212.393l-16.914,16.82c-3.468,3.448-8.021,5.172-12.574,5.172s-9.107-1.724-12.574-5.172
		c-3.366-3.347-5.219-7.799-5.219-12.536s1.852-9.189,5.219-12.536l16.914-16.82c6.935-6.896,18.214-6.896,25.149,0
		c3.366,3.347,5.219,7.799,5.219,12.536S273.722,209.046,270.356,212.393z M267.604,199.857c0-2.6-1.02-5.044-2.868-6.885
		c-3.837-3.814-10.072-3.814-13.909,0l-16.914,16.82c-1.849,1.841-2.868,4.285-2.868,6.885c0,2.6,1.02,5.044,2.868,6.885
		c3.837,3.814,10.072,3.814,13.909,0l16.914-16.82C266.585,204.901,267.604,202.457,267.604,199.857z M181.693,92.432h14.913v14.91
		c0,2.203,1.782,3.985,3.985,3.985c2.203,0,3.985-1.782,3.985-3.985v-14.91h14.91c2.203,0,3.985-1.782,3.985-3.985
		s-1.782-3.985-3.985-3.985h-14.91v-14.91c0-2.203-1.782-3.985-3.985-3.985c-2.203,0-3.985,1.782-3.985,3.985v14.91h-14.913
		c-2.203,0-3.985,1.782-3.985,3.985S179.49,92.432,181.693,92.432z M449.534,212.253c2.203,0,3.985-1.782,3.985-3.985
		s-1.782-3.985-3.985-3.985h-14.913v-14.91c0-2.203-1.782-3.985-3.985-3.985s-3.985,1.782-3.985,3.985v14.91h-14.91
		c-2.203,0-3.985,1.782-3.985,3.985s1.782,3.985,3.985,3.985h14.91v14.91c0,2.203,1.782,3.985,3.985,3.985s3.985-1.782,3.985-3.985
		v-14.91H449.534z"></path></svg>