<svg xmlns="http://www.w3.org/2000/svg" width="32" height="32" id="headphone"><path style="text-indent:0;text-align:start;line-height:normal;text-transform:none;block-progression:tb;marker:none;-inkscape-font-specification:Sans" d="M16 0C7.17 0 0 7.17 0 16s7.17 16 16 16 16-7.17 16-16S24.83 0 16 0zm0 .969C24.307.969 31.031 7.693 31.031 16S24.307 31.031 16 31.031.969 24.307.969 16 7.693.969 16 .969zm0 10.281a4.976 4.976 0 0 0-4.969 4.594A1.508 1.508 0 0 0 9 17.25v2c0 .822.678 1.5 1.5 1.5s1.5-.678 1.5-1.5v-1.469a.5.5 0 0 0 0-.031V16.156a3.986 3.986 0 0 1 4-3.906c2.163 0 3.917 1.692 4 3.813-.002-.054 0 .094 0 .25v2.937c0 .822.678 1.5 1.5 1.5s1.5-.678 1.5-1.5v-2a1.508 1.508 0 0 0-2.031-1.406A4.979 4.979 0 0 0 16 11.25zm-5.5 5.5c.286 0 .5.214.5.5v2c0 .286-.214.5-.5.5a.488.488 0 0 1-.5-.5v-2c0-.286.214-.5.5-.5zm11 0c.286 0 .5.214.5.5v2c0 .286-.214.5-.5.5a.488.488 0 0 1-.5-.5v-1.469a.5.5 0 0 0 0-.031v-.5c0-.286.214-.5.5-.5z" color="#000" font-family="Sans" font-weight="400" overflow="visible"></path></svg>