<?xml version="1.0" ?><!DOCTYPE svg  PUBLIC '-//W3C//DTD SVG 1.1//EN'  'http://www.w3.org/Graphics/SVG/1.1/DTD/svg11.dtd'><svg enable-background="new -84 -53.565 1024 1024" height="1024px" version="1.1" viewBox="-84 -53.565 1024 1024" width="1024px" xml:space="preserve" xmlns="http://www.w3.org/2000/svg" xmlns:xlink="http://www.w3.org/1999/xlink"><defs/><g><g><path d="M647.185,68.758c0,20.094,0,40.188,0,60.282c0,50.004,0,100.008,0,150.012c0,64.497,0,128.993,0,193.49    c0,63.571,0,127.143,0,190.714c0,47.229,0,94.458,0,141.687c0,12.668,0,25.337,0,38.005c0,2.754,0,5.508,0,8.263    c0,11.149-3.194,21.367-9.375,30.648c-10.235,15.369-28.763,24.542-47.039,24.542c-4.169,0-8.337,0-12.506,0    c-22.596,0-45.192,0-67.788,0c-62.463,0-124.926,0-187.389,0c-17.143,0-34.285,0-51.427,0c-11.579,0-22.298-2.515-32.201-8.751    c-15.35-9.667-24.546-27.428-24.546-45.416c0-21.586,0-43.173,0-64.76c0-50.88,0-101.76,0-152.639c0-64.756,0-129.512,0-194.267    c0-63.214,0-126.428,0-189.642c0-46.254,0-92.509,0-138.763c0-11.95,0-23.899,0-35.849c0-2.337,0-4.674,0-7.012    c0-14.167,5.224-27.504,14.924-37.841c10.434-11.118,25.067-16.763,40.167-16.763c5.1,0,10.2,0,15.3,0c23.778,0,47.556,0,71.333,0    c62.1,0,124.199,0,186.298,0c15.136,0,30.271,0,45.406,0c9.835,0,19.258,1.66,28.146,6.103    C634.677,29.894,646.938,48.338,647.185,68.758c0.109,9.021,14.109,9.032,14,0c-0.472-38.993-34.146-68.059-72.089-68.059    c-16.379,0-32.758,0-49.137,0c-62.3,0-124.599,0-186.898,0c-23.196,0-46.392,0-69.588,0c-4.639,0-9.278,0-13.917,0    c-17.892,0-34.75,6.799-47.776,19.021c-13.389,12.563-20.866,30.947-20.866,49.207c0,1.914,0,3.828,0,5.742    c0,11.219,0,22.438,0,33.656c0,45.255,0,90.511,0,135.767c0,62.831,0,125.663,0,188.494c0,64.989,0,129.979,0,194.97    c0,51.73,0,103.461,0,155.192c0,23.054,0,46.108,0,69.162c0,37.335,30.753,68.49,68.206,68.49c13.143,0,26.286,0,39.429,0    c61.281,0,122.563,0,183.844,0c25.414,0,50.828,0,76.242,0c18.17,0,35.335,0.872,52.498-6.834    c25.469-11.436,40.053-37.157,40.053-64.434c0-9.72,0-19.44,0-29.16c0-43.184,0-86.367,0-129.55c0-61.993,0-123.985,0-185.979    c0-65.384,0-130.769,0-196.153c0-53.359,0-106.718,0-160.077c0-25.916,0-51.831,0-77.747c0-0.57,0-1.139,0-1.709    C661.185,59.729,647.185,59.729,647.185,68.758z" fill="#010202"/></g></g><g><g><path d="M654.185,762.094c-31.853,0-63.704,0-95.557,0c-63.902,0-127.805,0-191.707,0    c-48.471,0-96.941,0-145.412,0c-4.532,0-9.064,0-13.596,0c2.333,2.333,4.667,4.667,7,7c0-23.971,0-47.941,0-71.913    c0-56.391,0-112.782,0-169.173c0-65.53,0-131.059,0-196.589c0-51.385,0-102.771,0-154.157c0-15.285,0-30.571,0-45.856    c-2.333,2.333-4.667,4.667-7,7c31.852,0,63.705,0,95.557,0c63.902,0,127.805,0,191.707,0c48.471,0,96.941,0,145.412,0    c4.531,0,9.063,0,13.596,0c-2.333-2.333-4.667-4.667-7-7c0,23.971,0,47.942,0,71.913c0,56.391,0,112.782,0,169.174    c0,65.529,0,131.059,0,196.588c0,51.386,0,102.771,0,154.157c0,15.285,0,30.571,0,45.856c0,9.028,14,9.028,14,0    c0-23.971,0-47.941,0-71.913c0-56.391,0-112.782,0-169.173c0-65.53,0-131.059,0-196.589c0-51.385,0-102.771,0-154.157    c0-15.285,0-30.571,0-45.856c0-3.816-3.185-7-7-7c-31.853,0-63.704,0-95.557,0c-63.902,0-127.805,0-191.707,0    c-48.471,0-96.941,0-145.412,0c-4.532,0-9.064,0-13.596,0c-3.816,0-7,3.184-7,7c0,23.971,0,47.942,0,71.913    c0,56.391,0,112.782,0,169.174c0,65.529,0,131.059,0,196.588c0,51.386,0,102.771,0,154.157c0,15.285,0,30.571,0,45.856    c0,3.815,3.184,7,7,7c31.852,0,63.705,0,95.557,0c63.902,0,127.805,0,191.707,0c48.471,0,96.941,0,145.412,0    c4.531,0,9.063,0,13.596,0C663.213,776.094,663.213,762.094,654.185,762.094z" fill="#010202"/></g></g><g><g><path d="M431.049,56.613c9.028,0,9.028-14,0-14S422.021,56.613,431.049,56.613L431.049,56.613z" fill="#010202"/></g></g><g><g><path d="M360.075,94.448c9.028,0,9.028-14,0-14S351.047,94.448,360.075,94.448L360.075,94.448z" fill="#010202"/></g></g><g><g><path d="M404.11,94.448c17.958,0,35.917,0,53.876,0c9.028,0,9.028-14,0-14c-17.959,0-35.917,0-53.876,0    C395.082,80.448,395.082,94.448,404.11,94.448L404.11,94.448z" fill="#010202"/></g></g><g><g><path d="M460.209,841.479c-0.301,16.218-12.781,29.421-29.16,29.734c-16.38,0.313-28.868-13.988-29.16-29.734    c-0.301-16.22,13.233-29.429,29.16-29.733C447.428,811.433,459.917,825.734,460.209,841.479c0.167,9.017,14.167,9.033,14,0    c-0.443-23.895-19.11-43.273-43.16-43.733s-42.73,20.533-43.16,43.733c-0.443,23.896,19.773,43.287,43.16,43.734    c24.05,0.46,42.73-20.534,43.16-43.734C474.376,832.446,460.376,832.463,460.209,841.479z" fill="#010202"/></g></g></svg>